<svg xmlns="http://www.w3.org/2000/svg" viewBox="0 12 215.1999969482422 34.650001525878906" data-asc="0.92" width="215.1999969482422" height="34.650001525878906"><defs/><g fill="#000000"><g transform="translate(0, 0)"><path d="M12.15 46.65Q8.70 46.65 5.95 45.10Q3.20 43.55 1.60 40.60Q0 37.65 0 33.45Q0 29.65 1.28 26.13Q2.55 22.60 4.90 19.77Q7.25 16.95 10.60 15.30Q13.95 13.65 18.05 13.65Q21.05 13.65 23.05 14.60Q25.05 15.55 25.05 17.40Q25.05 18.30 24.58 19.17Q24.10 20.05 23.35 20.65Q22.60 21.25 21.80 21.25Q21.30 21.25 21 21Q18.40 19.25 15.10 19.25Q11.60 19.25 9.20 20.88Q6.80 22.50 5.58 25.15Q4.35 27.80 4.35 30.90Q4.35 35.55 6.97 38.30Q9.60 41.05 14 41.05Q15.90 41.05 17.55 40.50Q19.20 39.95 20.25 38.90Q21.30 37.85 21.30 36.35Q21.30 34.85 20.40 34.05Q19.50 33.25 18.05 32.88Q16.60 32.50 14.90 32.40Q13.70 32.30 13.13 32.10Q12.55 31.90 12.55 30.90Q12.55 29.70 13.30 28.90Q14.05 28.10 15.15 28Q16.65 27.85 18.75 27.77Q20.85 27.70 23.13 27.68Q25.40 27.65 27.40 27.65Q28.05 27.65 28.40 27.88Q28.75 28.10 28.75 28.80Q28.75 29.65 28.38 30.65Q28 31.65 27.35 32.35Q26.70 33.05 25.85 33.05L25.05 33.05Q25.20 33.55 25.33 34.17Q25.45 34.80 25.45 35.60Q25.45 37.80 24.40 39.77Q23.35 41.75 21.50 43.30Q19.65 44.85 17.25 45.75Q14.85 46.65 12.15 46.65ZM38.60 46.65Q34.80 46.65 32.68 44.48Q30.55 42.30 30.55 38.40Q30.55 34.85 32.10 31.95Q33.65 29.05 36.28 27.32Q38.90 25.60 42.05 25.60Q45.05 25.60 46.85 27.07Q48.65 28.55 48.65 31Q48.65 32.95 47.45 34.60Q46.25 36.25 44.25 37.23Q42.25 38.20 39.80 38.20Q36.80 38.20 34.90 36.85Q34.95 39.15 36.48 40.55Q38.00 41.95 40.40 41.95Q41.85 41.95 43.38 41.42Q44.90 40.90 46.00 40Q46.70 39.40 47.30 39.40Q47.80 39.40 48.13 39.73Q48.45 40.05 48.45 40.55Q48.45 41.65 46.55 43.45Q43.20 46.65 38.60 46.65M39.35 34.90Q41.15 34.90 42.35 34.15Q43.55 33.40 43.55 32.25Q43.55 31.30 42.75 30.77Q41.95 30.25 40.55 30.25Q38.70 30.25 37.33 31.23Q35.95 32.20 35.35 33.95Q36.05 34.40 37.15 34.65Q38.25 34.90 39.35 34.90ZM60.40 46.65Q56.95 46.65 54.88 44.77Q52.80 42.90 52.80 39.25Q52.80 37.55 53.28 35.95Q53.75 34.35 54.55 32.95Q53.75 33.45 53.35 33.45Q52.75 33.45 52.53 32.77Q52.30 32.10 52.30 31.45Q52.30 30.30 52.78 29.63Q53.25 28.95 53.70 28.60Q54.75 27.70 57.00 26.63Q59.25 25.55 62.40 25.55Q66.70 25.55 69.08 27.95Q71.45 30.35 71.45 34.65Q71.45 38 70.05 40.73Q68.65 43.45 66.18 45.05Q63.70 46.65 60.40 46.65M61.95 41.55Q64.45 41.55 66.18 39.98Q67.90 38.40 67.90 35.80Q67.90 33.10 66.15 31.95Q64.40 30.80 62.10 30.80Q61.05 30.80 60.20 31Q59.35 31.20 58.60 31.50Q57.90 32.50 57.35 33.75Q56.80 35 56.80 36.50Q56.80 39 58.30 40.27Q59.80 41.55 61.95 41.55ZM78.10 46.55Q76.30 46.55 76.50 45.35Q77.05 43.20 77.43 40.98Q77.80 38.75 77.80 36.70Q77.80 34.05 77.48 32.83Q77.15 31.60 76.60 31.13Q76.05 30.65 75.25 30.40Q74.90 30.25 74.63 30Q74.35 29.75 74.35 29.30Q74.35 28.60 74.90 27.75Q75.45 26.90 76.48 26.27Q77.50 25.65 78.80 25.65Q80.50 25.65 81.15 26.82Q81.80 28 81.80 29.90Q81.80 31.15 81.55 32.70Q81.30 34.25 81.05 35.50L81.20 35.55Q82.20 32.90 83.63 30.63Q85.05 28.35 86.95 26.95Q88.85 25.55 91.35 25.55Q94 25.55 95.40 27.15Q96.80 28.75 96.80 31.15Q96.80 32.15 96.58 33.05Q96.35 33.95 96.10 34.80Q95.85 35.60 95.68 36.45Q95.50 37.30 95.50 38.15Q95.50 41 98.20 42Q98.90 42.30 98.90 42.90Q98.90 43.35 98.60 44.20Q98.30 45.05 97.50 45.77Q96.70 46.50 95.15 46.50Q93.15 46.50 92.05 45.08Q90.95 43.65 90.95 41.45Q90.95 40.20 91.23 38.92Q91.50 37.65 91.80 36.55Q92 35.70 92.18 34.88Q92.35 34.05 92.35 33.40Q92.35 31.10 89.95 31.10Q87.90 31.10 86.35 32.63Q84.80 34.15 83.70 36.45Q82.60 38.75 81.90 41.10L81.90 42.30Q81.90 44.15 80.88 45.35Q79.85 46.55 78.10 46.55ZM110 46.65Q106.55 46.65 104.48 44.77Q102.40 42.90 102.40 39.25Q102.40 37.55 102.88 35.95Q103.35 34.35 104.15 32.95Q103.35 33.45 102.95 33.45Q102.35 33.45 102.13 32.77Q101.90 32.10 101.90 31.45Q101.90 30.30 102.38 29.63Q102.85 28.95 103.30 28.60Q104.35 27.70 106.60 26.63Q108.85 25.55 112 25.55Q116.30 25.55 118.68 27.95Q121.05 30.35 121.05 34.65Q121.05 38 119.65 40.73Q118.25 43.45 115.78 45.05Q113.30 46.65 110 46.65M111.55 41.55Q114.05 41.55 115.78 39.98Q117.50 38.40 117.50 35.80Q117.50 33.10 115.75 31.95Q114 30.80 111.70 30.80Q110.65 30.80 109.80 31Q108.95 31.20 108.20 31.50Q107.50 32.50 106.95 33.75Q106.40 35 106.40 36.50Q106.40 39 107.90 40.27Q109.40 41.55 111.55 41.55ZM127.70 46.55Q125.90 46.55 126.10 45.35Q126.65 43.20 127.03 40.98Q127.40 38.75 127.40 36.70Q127.40 34.05 127.08 32.83Q126.75 31.60 126.20 31.13Q125.65 30.65 124.85 30.40Q124.50 30.25 124.22 30Q123.95 29.75 123.95 29.30Q123.95 28.60 124.50 27.75Q125.05 26.90 126.08 26.27Q127.10 25.65 128.40 25.65Q130.10 25.65 130.75 26.82Q131.40 28 131.40 29.90Q131.40 31.15 131.15 32.70Q130.90 34.25 130.65 35.50L130.75 35.55Q131.55 32.90 132.72 30.65Q133.90 28.40 135.57 27Q137.25 25.60 139.45 25.60Q141.70 25.60 143 27.13Q144.30 28.65 144.30 31.60L144.30 32.70Q145.75 29.65 147.82 27.60Q149.90 25.55 152.85 25.55Q155.25 25.55 156.60 27.15Q157.95 28.75 157.95 31.15Q157.95 32.10 157.75 32.98Q157.55 33.85 157.30 34.70Q157.10 35.50 156.90 36.35Q156.70 37.20 156.70 38.05Q156.70 41.05 159.25 41.95Q159.60 42.10 159.80 42.27Q160 42.45 160 42.90Q160 43.35 159.72 44.20Q159.45 45.05 158.65 45.77Q157.85 46.50 156.35 46.50Q154.40 46.50 153.35 45.08Q152.30 43.65 152.30 41.45Q152.30 40.35 152.50 39.15Q152.70 37.95 153 36.85Q153.25 35.85 153.43 34.95Q153.60 34.05 153.60 33.40Q153.60 32.20 153.03 31.65Q152.45 31.10 151.50 31.10Q149.90 31.10 148.63 32.10Q147.35 33.10 146.38 34.70Q145.40 36.30 144.70 38.20Q144.75 38.65 144.78 39.38Q144.80 40.10 144.80 40.65Q144.80 41.60 144.68 42.65Q144.55 43.70 144.20 44.40Q143.80 45.35 143.03 45.95Q142.25 46.55 140.95 46.55Q140.40 46.55 139.90 46.33Q139.40 46.10 139.40 45.60Q139.40 45.40 139.70 43.83Q140 42.25 140.30 39.95Q140.60 37.65 140.60 35.45Q140.60 33.05 140.10 32.13Q139.60 31.20 138.60 31.20Q137.35 31.20 136.22 32.25Q135.10 33.30 134.18 34.95Q133.25 36.60 132.57 38.40Q131.90 40.20 131.50 41.75L131.50 42.30Q131.50 44.15 130.47 45.35Q129.45 46.55 127.70 46.55ZM166.90 46.50Q165.45 46.50 164.75 45.70Q164.05 44.90 164.05 42.90Q164.05 41.95 164.20 40.45Q164.35 38.95 164.55 37.20Q164.85 35.05 165.08 32.70Q165.30 30.35 165.30 28.20Q165.30 25.15 165.03 21.88Q164.75 18.60 163.50 16.15Q163.05 15.15 163.05 14.70Q163.05 14.05 163.63 13.45Q164.20 12.85 165.05 12.42Q165.90 12 166.70 12Q168 12 168.65 13.17Q169.30 14.35 169.50 16.38Q169.70 18.40 169.70 21Q169.70 24.95 169.38 27.85Q169.05 30.75 168.75 32.95Q168.55 34.40 168.38 35.70Q168.20 37 168.20 38.05Q168.20 39.80 168.78 40.58Q169.35 41.35 170.65 42.10Q171 42.30 171.18 42.48Q171.35 42.65 171.35 43Q171.35 43.40 170.95 44.25Q170.55 45.10 169.58 45.80Q168.60 46.50 166.90 46.50ZM180.80 46.65Q177.80 46.65 175.98 44.77Q174.15 42.90 174.15 39.40Q174.15 36.90 175.13 34.42Q176.10 31.95 177.95 29.95Q179.80 27.95 182.40 26.75Q185.00 25.55 188.25 25.55Q191.25 25.55 193.38 26.57Q195.50 27.60 195.50 29.35Q195.50 29.80 195.40 30.52Q195.30 31.25 195.15 31.70Q195.00 32.10 194.73 32.42Q194.45 32.75 194.00 32.75Q193.80 32.75 193.25 32.60Q193.05 33.65 192.95 34.65Q192.85 35.65 192.85 36.65Q192.85 38.55 193.43 40.02Q194.00 41.50 195.70 41.85Q196.15 41.95 196.43 42.15Q196.70 42.35 196.70 43Q196.70 43.55 196.43 44.40Q196.15 45.25 195.38 45.92Q194.60 46.60 193.15 46.60Q191.20 46.60 190.15 45.17Q189.10 43.75 189.10 41.10Q187.75 43.55 185.68 45.10Q183.60 46.65 180.80 46.65M182.40 41.45Q184.40 41.45 185.93 40.20Q187.45 38.95 188.30 37.05Q188.85 35.85 189.15 34.42Q189.45 33 189.55 31.60Q188.70 31.20 187.60 30.95Q186.50 30.70 185.30 30.70Q182.25 30.70 180.28 32.50Q178.30 34.30 178.30 37Q178.30 39 179.40 40.23Q180.50 41.45 182.40 41.45ZM202.80 46.55Q202.00 46.55 201.53 46.27Q201.05 46 201.20 45.35Q201.75 43.20 202.13 40.98Q202.50 38.75 202.50 36.70Q202.50 34.05 202.18 32.83Q201.85 31.60 201.30 31.13Q200.75 30.65 199.95 30.40Q199.60 30.25 199.33 30Q199.05 29.75 199.05 29.30Q199.05 28.60 199.60 27.75Q200.15 26.90 201.15 26.27Q202.15 25.65 203.45 25.65Q205.15 25.65 205.83 26.82Q206.50 28 206.50 29.90Q207.40 27.90 208.73 26.72Q210.05 25.55 212.05 25.55Q213.40 25.55 214.30 26.15Q215.20 26.75 215.20 28.10Q215.20 29.45 214.33 30.63Q213.45 31.80 212.55 31.80Q212.40 31.80 212.20 31.75Q212.00 31.70 211.85 31.50Q211.20 30.70 210.25 30.70Q208.80 30.70 207.70 32.60Q206.60 34.50 206.50 37.85Q206.55 39.10 206.58 40.40Q206.60 41.70 206.60 42.30Q206.60 44.15 205.58 45.35Q204.55 46.55 202.80 46.55Z"/></g></g></svg>